Motion_pl02
version=1
nRows=8
nColumns=43
inDegrees=yes
endheader
time	pelvis_tilt	pelvis_list	pelvis_rotation	pelvis_tx	pelvis_ty	pelvis_tz	hip_flexion_r	hip_adduction_r	hip_rotation_r	knee_angle_r	ankle_angle_r	subtalar_angle_r	mtp_angle_r	hip_flexion_l	hip_adduction_l	hip_rotation_l	knee_angle_l	ankle_angle_l	subtalar_angle_l	mtp_angle_l	lumbar_extension	lumbar_bending	lumbar_rotation	neck_flexion	neck_lateral_bending	neck_rotation	arm_flex_r	arm_add_r	arm_rot_r	elbow_flex_r	pro_sup_r	wrist_flex_r	wrist_dev_r	hand_finger_flex_r	arm_flex_l	arm_add_l	arm_rot_l	elbow_flex_l	pro_sup_l	wrist_flex_l	wrist_dev_l	hand_finger_flex_l
      0.00250000	      3.67492518	    -11.21806531	     93.31616268	     -0.00060166	      2.05580556	      1.68304301	     19.62320082	     -0.64061157	      3.15626508	    -22.01565621	      4.95315859	      2.44504479	      0.48429097	     22.84885312	     -9.10855628	     -0.28294869	    -26.66242007	     13.43298575	     10.10341342	      5.01050678	    -21.95205590	      1.85117451	      0.71036859	    -12.85855646	      5.72967344	     -3.38509307	     18.75733553	    -31.49703105	    -31.75455960	     60.43195288	    132.42226716	    -14.28644972	     10.83288772	    -16.93637619	      2.37878607	    -24.34663628	    -42.71538616	     72.54486245	    126.84079244	    -14.29365723	      3.93087540	     -6.04860908
      0.00500000	      3.67356960	    -11.21856105	     93.31575933	     -0.00062127	      2.05575539	      1.68298517	     19.62404920	     -0.63962648	      3.15596233	    -22.01562445	      4.95323835	      2.44508754	      0.48429385	     22.84863619	     -9.10845161	     -0.28291222	    -26.66246793	     13.43301762	     10.10339620	      5.01053056	    -21.95308938	      1.85166759	      0.71013091	    -12.85866443	      5.72964924	     -3.38517422	     18.75742357	    -31.49719590	    -31.75454926	     60.43207062	    132.42234162	    -14.28650578	     10.83293967	    -16.93648908	      2.37914473	    -24.34704686	    -42.71536144	     72.54525494	    126.84068976	    -14.29370840	      3.93088222	     -6.04851346
      0.00750000	      3.67090494	    -11.23777711	     93.30791216	     -0.00063484	      2.05567015	      1.68270219	     19.62452858	     -0.63665580	      3.15359236	    -22.02396050	      4.95293933	      2.44573378	      0.48432359	     22.84400407	     -9.10675372	     -0.28275251	    -26.66407983	     13.43348509	     10.10326042	      5.01078379	    -21.96564245	      1.85836603	      0.70563962	    -12.86087341	      5.72941252	     -3.38587277	     18.75860483	    -31.50105941	    -31.75570649	     60.43432551	    132.42313310	    -14.28750161	     10.83343607	    -16.93771131	      2.38454435	    -24.35385983	    -42.71623764	     72.55124474	    126.83974049	    -14.29459656	      3.93053103	     -6.04772518
      0.01000000	      3.67071556	    -11.23811499	     93.30681913	     -0.00063669	      2.05561842	      1.68263927	     19.62716739	     -0.63641441	      3.15316660	    -22.02440763	      4.95282766	      2.44586678	      0.48432869	     22.84315255	     -9.10642100	     -0.28275436	    -26.66436308	     13.43358895	     10.10323802	      5.01082822	    -21.96786146	      1.85944343	      0.70484425	    -12.86139072	      5.72935678	     -3.38597306	     18.75888617	    -31.50200458	    -31.75605503	     60.43492505	    132.42327807	    -14.28773682	     10.83350237	    -16.93793481	      2.38556411	    -24.35536574	    -42.71660166	     72.55246908	    126.83958638	    -14.29480736	      3.93043393	     -6.04761421
      0.01250000	      3.47158861	    -11.22352287	     93.09771005	     -0.00049280	      2.05540626	      1.68434866	     20.07199241	     -0.79245324	      3.24326336	    -22.63769295	      5.41673078	      2.78483281	      0.49335625	     22.99316126	     -8.91696801	     -0.22882934	    -26.91221189	     13.64138459	     10.01687341	      5.08404610	    -22.44508891	      1.63503046	      0.73393384	    -12.64399783	      5.50211463	     -3.48141145	     18.74663774	    -31.64613871	    -31.71206845	     61.23827885	    132.58865532	    -14.43891787	     11.02726281	    -17.22312676	      2.25185095	    -24.63190275	    -42.73838166	     73.28609545	    126.55211035	    -14.37104317	      4.07157517	     -5.76461580
      0.01500000	      3.47032212	    -11.22449058	     93.09708400	     -0.00051326	      2.05535900	      1.68427819	     20.07294705	     -0.79079210	      3.24259111	    -22.63806916	      5.41647444	      2.78486483	      0.49336104	     22.99278236	     -8.91665174	     -0.22894567	    -26.91222998	     13.64130808	     10.01681873	      5.08406818	    -22.44632127	      1.63558808	      0.73362669	    -12.64392669	      5.50212497	     -3.48143914	     18.74689213	    -31.64637790	    -31.71221834	     61.23834868	    132.58868636	    -14.43891379	     11.02745744	    -17.22325582	      2.25250254	    -24.63240955	    -42.73855439	     73.28641299	    126.55194326	    -14.37111605	      4.07167955	     -5.76448373
      0.01750000	      3.48788875	    -11.24645480	     93.07105874	     -0.00057580	      2.05523004	      1.68427050	     20.12534455	     -0.77610605	      3.22179192	    -22.67602888	      5.39873322	      2.78964296	      0.49360448	     22.97091131	     -8.90933161	     -0.23484146	    -26.91428977	     13.63979443	     10.01344705	      5.08527584	    -22.49231483	      1.65517579	      0.72408857	    -12.64599728	      5.50136600	     -3.48225280	     18.76124891	    -31.67215644	    -31.72677312	     61.25284695	    132.59096656	    -14.44224617	     11.03576877	    -17.23039617	      2.28402119	    -24.67498111	    -42.75984338	     73.31152326	    126.54413064	    -14.37841760	      4.07508234	     -5.75927285
      0.02000000	      3.48548545	    -11.24675652	     93.07105099	     -0.00060122	      2.05516953	      1.68418632	     20.12557771	     -0.77470565	      3.22089000	    -22.67753216	      5.39846357	      2.78966361	      0.49361023	     22.97238296	     -8.90994190	     -0.23488211	    -26.91347947	     13.63984772	     10.01331548	      5.08530164	    -22.49407072	      1.65546742	      0.72483571	    -12.64620151	      5.50134242	     -3.48225007	     18.76236768	    -31.67285632	    -31.72690904	     61.25376157	    132.59104460	    -14.44234560	     11.03580136	    -17.23056569	      2.28485181	    -24.67600817	    -42.76031307	     73.31233702	    126.54396150	    -14.37860632	      4.07510323	     -5.75916123
